<svg height="660" width="660"
    xmlns="http://www.w3.org/2000/svg"
    xmlns:xlink="http://www.w3.org/1999/xlink"
    xmlns:ev="http://www.w3.org/2001/xml-events">
<title>Original Bottom Strand</title>
<rect x="0" y="0" width="660" height="660" fill="white" />
<text x="330" y="20" text-anchor="middle">Original Bottom Strand</text>
<line x1="80" y1="80" x2="80" y2="580" stroke="black" />
<line x1="80" y1="580" x2="580" y2="580" stroke="black" />
<text x="15" y="330" transform="rotate(270 15, 330)" text-anchor="middle" dominant-baseline="text-before-edge">CpG Methylation %</text>
<text x="330" y="620" text-anchor="middle">Position along mapped read (5'->3' of + strand)</text>
<line x1="80" y1="580" x2="80" y2="585" stroke="black" />
<text x="80" y="600" text-anchor="middle">0</text>
<line x1="113.333333" y1="80" x2="113.333333" y2="580" stroke-dasharray="5 5" stroke="grey" />
<line x1="113.333333" y1="580" x2="113.333333" y2="585" stroke="black" />
<text x="113.333333" y="600" text-anchor="middle">10</text>
<line x1="146.666667" y1="80" x2="146.666667" y2="580" stroke-dasharray="5 5" stroke="grey" />
<line x1="146.666667" y1="580" x2="146.666667" y2="585" stroke="black" />
<text x="146.666667" y="600" text-anchor="middle">20</text>
<line x1="180.000000" y1="80" x2="180.000000" y2="580" stroke-dasharray="5 5" stroke="grey" />
<line x1="180.000000" y1="580" x2="180.000000" y2="585" stroke="black" />
<text x="180.000000" y="600" text-anchor="middle">30</text>
<line x1="213.333333" y1="80" x2="213.333333" y2="580" stroke-dasharray="5 5" stroke="grey" />
<line x1="213.333333" y1="580" x2="213.333333" y2="585" stroke="black" />
<text x="213.333333" y="600" text-anchor="middle">40</text>
<line x1="246.666667" y1="80" x2="246.666667" y2="580" stroke-dasharray="5 5" stroke="grey" />
<line x1="246.666667" y1="580" x2="246.666667" y2="585" stroke="black" />
<text x="246.666667" y="600" text-anchor="middle">50</text>
<line x1="280.000000" y1="80" x2="280.000000" y2="580" stroke-dasharray="5 5" stroke="grey" />
<line x1="280.000000" y1="580" x2="280.000000" y2="585" stroke="black" />
<text x="280.000000" y="600" text-anchor="middle">60</text>
<line x1="313.333333" y1="80" x2="313.333333" y2="580" stroke-dasharray="5 5" stroke="grey" />
<line x1="313.333333" y1="580" x2="313.333333" y2="585" stroke="black" />
<text x="313.333333" y="600" text-anchor="middle">70</text>
<line x1="346.666667" y1="80" x2="346.666667" y2="580" stroke-dasharray="5 5" stroke="grey" />
<line x1="346.666667" y1="580" x2="346.666667" y2="585" stroke="black" />
<text x="346.666667" y="600" text-anchor="middle">80</text>
<line x1="380.000000" y1="80" x2="380.000000" y2="580" stroke-dasharray="5 5" stroke="grey" />
<line x1="380.000000" y1="580" x2="380.000000" y2="585" stroke="black" />
<text x="380.000000" y="600" text-anchor="middle">90</text>
<line x1="413.333333" y1="80" x2="413.333333" y2="580" stroke-dasharray="5 5" stroke="grey" />
<line x1="413.333333" y1="580" x2="413.333333" y2="585" stroke="black" />
<text x="413.333333" y="600" text-anchor="middle">100</text>
<line x1="446.666667" y1="80" x2="446.666667" y2="580" stroke-dasharray="5 5" stroke="grey" />
<line x1="446.666667" y1="580" x2="446.666667" y2="585" stroke="black" />
<text x="446.666667" y="600" text-anchor="middle">110</text>
<line x1="480.000000" y1="80" x2="480.000000" y2="580" stroke-dasharray="5 5" stroke="grey" />
<line x1="480.000000" y1="580" x2="480.000000" y2="585" stroke="black" />
<text x="480.000000" y="600" text-anchor="middle">120</text>
<line x1="513.333333" y1="80" x2="513.333333" y2="580" stroke-dasharray="5 5" stroke="grey" />
<line x1="513.333333" y1="580" x2="513.333333" y2="585" stroke="black" />
<text x="513.333333" y="600" text-anchor="middle">130</text>
<line x1="546.666667" y1="80" x2="546.666667" y2="580" stroke-dasharray="5 5" stroke="grey" />
<line x1="546.666667" y1="580" x2="546.666667" y2="585" stroke="black" />
<text x="546.666667" y="600" text-anchor="middle">140</text>
<line x1="580.000000" y1="80" x2="580.000000" y2="580" stroke-dasharray="5 5" stroke="grey" />
<line x1="580.000000" y1="580" x2="580.000000" y2="585" stroke="black" />
<text x="580.000000" y="600" text-anchor="middle">150</text>
<line x1="80" y1="580.000000" x2="75" y2="580.000000" stroke="black" />
<text x="55" y="580.000000" text-anchor="middle" dominant-baseline="middle">0.55</text>
<line x1="80" y1="524.444444" x2="75" y2="524.444444" stroke="black" />
<text x="55" y="524.444444" text-anchor="middle" dominant-baseline="middle">0.60</text>
<line x1="80" y1="468.888889" x2="75" y2="468.888889" stroke="black" />
<text x="55" y="468.888889" text-anchor="middle" dominant-baseline="middle">0.65</text>
<line x1="80" y1="413.333333" x2="75" y2="413.333333" stroke="black" />
<text x="55" y="413.333333" text-anchor="middle" dominant-baseline="middle">0.70</text>
<line x1="80" y1="357.777778" x2="75" y2="357.777778" stroke="black" />
<text x="55" y="357.777778" text-anchor="middle" dominant-baseline="middle">0.75</text>
<line x1="80" y1="302.222222" x2="75" y2="302.222222" stroke="black" />
<text x="55" y="302.222222" text-anchor="middle" dominant-baseline="middle">0.80</text>
<line x1="80" y1="246.666667" x2="75" y2="246.666667" stroke="black" />
<text x="55" y="246.666667" text-anchor="middle" dominant-baseline="middle">0.85</text>
<line x1="80" y1="191.111111" x2="75" y2="191.111111" stroke="black" />
<text x="55" y="191.111111" text-anchor="middle" dominant-baseline="middle">0.90</text>
<line x1="80" y1="135.555556" x2="75" y2="135.555556" stroke="black" />
<text x="55" y="135.555556" text-anchor="middle" dominant-baseline="middle">0.95</text>
<line x1="80" y1="80.000000" x2="75" y2="80.000000" stroke="black" />
<text x="55" y="80.000000" text-anchor="middle" dominant-baseline="middle">1.00</text>
<path d="M 83.333333 440.911442
  L 86.666667 469.126118
  L 90.000000 438.785423
  L 93.333333 430.641490
  L 96.666667 476.384260
  L 100.000000 473.361893
  L 103.333333 436.585301
  L 106.666667 428.245921
  L 110.000000 449.053886
  L 113.333333 429.484453
  L 116.666667 417.295688
  L 120.000000 454.041766
  L 123.333333 433.289850
  L 126.666667 427.600213
  L 130.000000 431.416147
  L 133.333333 429.019462
  L 136.666667 409.606189
  L 140.000000 402.973279
  L 143.333333 427.888452
  L 146.666667 419.795493
  L 150.000000 407.308707
  L 153.333333 434.746412
  L 156.666667 410.728500
  L 160.000000 421.553467
  L 163.333333 440.389086
  L 166.666667 414.503773
  L 170.000000 397.503772
  L 173.333333 411.802367
  L 176.666667 405.656480
  L 180.000000 427.907513
  L 183.333333 434.088647
  L 186.666667 396.438281
  L 190.000000 412.996158
  L 193.333333 394.625141
  L 196.666667 412.093489
  L 200.000000 406.281001
  L 203.333333 425.226279
  L 206.666667 411.719705
  L 210.000000 405.901074
  L 213.333333 423.851973
  L 216.666667 416.186964
  L 220.000000 429.621159
  L 223.333333 425.236007
  L 226.666667 419.802520
  L 230.000000 416.611396
  L 233.333333 427.797560
  L 236.666667 423.294143
  L 240.000000 423.066355
  L 243.333333 399.498955
  L 246.666667 428.054045
  L 250.000000 420.206370
  L 253.333333 421.913366
  L 256.666667 421.617823
  L 260.000000 423.868494
  L 263.333333 427.357321
  L 266.666667 417.276150
  L 270.000000 398.840210
  L 273.333333 418.753408
  L 276.666667 421.266162
  L 280.000000 407.820186
  L 283.333333 425.472017
  L 286.666667 432.397711
  L 290.000000 418.710710
  L 293.333333 417.009393
  L 296.666667 446.241998
  L 300.000000 427.300344
  L 303.333333 415.222507
  L 306.666667 406.095344
  L 310.000000 408.855190
  L 313.333333 398.698129
  L 316.666667 400.000229
  L 320.000000 409.982410
  L 323.333333 412.155161
  L 326.666667 409.003263
  L 330.000000 427.573914
  L 333.333333 427.632784
  L 336.666667 400.888249
  L 340.000000 438.703135
  L 343.333333 424.550294
  L 346.666667 426.350727
  L 350.000000 413.080238
  L 353.333333 428.309211
  L 356.666667 414.782019
  L 360.000000 432.712873
  L 363.333333 424.908274
  L 366.666667 402.179581
  L 370.000000 432.398929
  L 373.333333 426.064224
  L 376.666667 402.869479
  L 380.000000 416.862723
  L 383.333333 426.425111
  L 386.666667 417.099605
  L 390.000000 415.671981
  L 393.333333 421.107522
  L 396.666667 415.828419
  L 400.000000 445.564791
  L 403.333333 423.726006
  L 406.666667 419.224985
  L 410.000000 411.991953
  L 413.333333 410.991803
  L 416.666667 436.144818
  L 420.000000 425.848546
  L 423.333333 414.444173
  L 426.666667 408.842544
  L 430.000000 438.331352
  L 433.333333 411.093141
  L 436.666667 408.681759
  L 440.000000 433.473039
  L 443.333333 416.652246
  L 446.666667 411.180909
  L 450.000000 404.828091
  L 453.333333 433.487851
  L 456.666667 427.282398
  L 460.000000 444.585044
  L 463.333333 431.670253
  L 466.666667 420.580946
  L 470.000000 435.462045
  L 473.333333 419.760864
  L 476.666667 445.036043
  L 480.000000 425.238091
  L 483.333333 420.404522
  L 486.666667 399.196632
  L 490.000000 411.075285
  L 493.333333 437.373457
  L 496.666667 423.663434
  L 500.000000 443.649477
  L 503.333333 420.374667
  L 506.666667 424.598483
  L 510.000000 417.906794
  L 513.333333 433.833593
  L 516.666667 423.253227
  L 520.000000 429.661709
  L 523.333333 447.006044
  L 526.666667 421.042873
  L 530.000000 429.962924
  L 533.333333 430.216761
  L 536.666667 451.042061
  L 540.000000 457.828182
  L 543.333333 424.280223
  L 546.666667 463.062669
  L 550.000000 435.117045
  L 553.333333 440.692829
  L 556.666667 442.101409
  L 560.000000 445.282665
  L 563.333333 422.160610
  L 566.666667 430.879917
  L 570.000000 400.234987
  L 573.333333 466.086093
  L 576.666667 515.960929
  L 580.000000 330.477278
  L 580.000000 240.966414
  L 576.666667 398.027957
  L 573.333333 356.952280
  L 570.000000 301.485682
  L 566.666667 323.958177
  L 563.333333 320.498940
  L 560.000000 343.668782
  L 556.666667 339.996281
  L 553.333333 341.165905
  L 550.000000 338.537017
  L 546.666667 367.170057
  L 543.333333 334.336623
  L 540.000000 362.647682
  L 536.666667 358.269079
  L 533.333333 338.865670
  L 530.000000 342.480414
  L 526.666667 334.302224
  L 523.333333 358.379022
  L 520.000000 343.438665
  L 516.666667 336.967045
  L 513.333333 348.481831
  L 510.000000 336.548052
  L 506.666667 343.353149
  L 503.333333 337.182426
  L 500.000000 359.835288
  L 496.666667 343.975449
  L 493.333333 354.160297
  L 490.000000 333.291488
  L 486.666667 321.894508
  L 483.333333 340.951732
  L 480.000000 347.370046
  L 476.666667 365.649182
  L 473.333333 341.365684
  L 470.000000 356.794721
  L 466.666667 342.707275
  L 463.333333 354.800386
  L 460.000000 366.712555
  L 456.666667 351.601522
  L 453.333333 357.226998
  L 450.000000 329.256301
  L 446.666667 337.718894
  L 443.333333 342.572211
  L 440.000000 358.178627
  L 436.666667 334.215720
  L 433.333333 336.030426
  L 430.000000 365.744772
  L 426.666667 337.319762
  L 423.333333 342.453376
  L 420.000000 351.391394
  L 416.666667 360.949538
  L 413.333333 339.017100
  L 410.000000 340.079876
  L 406.666667 347.040924
  L 403.333333 352.704442
  L 400.000000 371.849621
  L 396.666667 344.008778
  L 393.333333 349.696496
  L 390.000000 344.349836
  L 386.666667 345.757680
  L 383.333333 354.496416
  L 380.000000 345.504638
  L 376.666667 332.318849
  L 373.333333 354.309961
  L 370.000000 359.454168
  L 366.666667 333.816451
  L 363.333333 355.079528
  L 360.000000 360.891741
  L 356.666667 343.089356
  L 353.333333 357.331042
  L 350.000000 341.394081
  L 346.666667 355.646848
  L 343.333333 353.277674
  L 340.000000 366.706987
  L 336.666667 332.918505
  L 333.333333 355.554655
  L 330.000000 355.898678
  L 326.666667 339.372702
  L 323.333333 342.358930
  L 320.000000 340.622181
  L 316.666667 330.681991
  L 313.333333 330.685000
  L 310.000000 341.123363
  L 306.666667 338.531249
  L 303.333333 347.119237
  L 300.000000 357.693212
  L 296.666667 374.808308
  L 293.333333 349.057274
  L 290.000000 349.453123
  L 286.666667 362.414818
  L 283.333333 356.417894
  L 280.000000 341.020597
  L 276.666667 353.200382
  L 273.333333 351.052974
  L 270.000000 330.801514
  L 266.666667 348.520442
  L 263.333333 357.791681
  L 260.000000 355.473776
  L 256.666667 353.198440
  L 253.333333 355.026007
  L 250.000000 351.721607
  L 246.666667 358.727450
  L 243.333333 332.570549
  L 240.000000 353.904264
  L 236.666667 353.157457
  L 233.333333 358.958984
  L 230.000000 348.019336
  L 226.666667 350.620909
  L 223.333333 356.019419
  L 220.000000 359.938207
  L 216.666667 347.148471
  L 213.333333 356.278099
  L 210.000000 339.428476
  L 206.666667 344.897904
  L 203.333333 357.619402
  L 200.000000 339.890728
  L 196.666667 344.718278
  L 193.333333 328.559102
  L 190.000000 345.218497
  L 186.666667 331.007627
  L 183.333333 365.257458
  L 180.000000 360.199155
  L 176.666667 339.323650
  L 173.333333 344.376877
  L 170.000000 331.538839
  L 166.666667 346.622309
  L 163.333333 370.613891
  L 160.000000 354.770209
  L 156.666667 343.335179
  L 153.333333 366.189602
  L 150.000000 341.935214
  L 146.666667 353.432836
  L 143.333333 361.051291
  L 140.000000 336.002882
  L 136.666667 342.403530
  L 133.333333 359.585535
  L 130.000000 362.140234
  L 126.666667 358.347732
  L 123.333333 362.958984
  L 120.000000 382.837081
  L 116.666667 348.225632
  L 113.333333 360.124800
  L 110.000000 378.369237
  L 106.666667 359.334642
  L 103.333333 368.617446
  L 100.000000 400.640814
  L 96.666667 402.199979
  L 93.333333 360.588718
  L 90.000000 365.226109
  L 86.666667 403.644577
  L 83.333333 367.956190
Z" fill="rgb(248,118,109)" fill-opacity="0.2"/>
<path d="M 83.333333 347.357312
  L 86.666667 436.494781
  L 90.000000 485.280689
  L 93.333333 458.073898
  L 96.666667 411.736815
  L 100.000000 413.170885
  L 103.333333 433.564066
  L 106.666667 414.166812
  L 110.000000 429.183560
  L 113.333333 432.224579
  L 116.666667 421.833750
  L 120.000000 438.009834
  L 123.333333 444.906862
  L 126.666667 439.422659
  L 130.000000 429.705304
  L 133.333333 410.164814
  L 136.666667 425.715471
  L 140.000000 405.043879
  L 143.333333 425.716189
  L 146.666667 429.726348
  L 150.000000 442.504384
  L 153.333333 419.462612
  L 156.666667 396.146727
  L 160.000000 419.448624
  L 163.333333 427.339144
  L 166.666667 423.767411
  L 170.000000 404.809734
  L 173.333333 427.810489
  L 176.666667 403.267925
  L 180.000000 429.138353
  L 183.333333 419.952307
  L 186.666667 414.418136
  L 190.000000 422.732767
  L 193.333333 421.191160
  L 196.666667 424.412546
  L 200.000000 397.649733
  L 203.333333 415.569871
  L 206.666667 456.254777
  L 210.000000 412.536687
  L 213.333333 449.380452
  L 216.666667 424.296160
  L 220.000000 416.097224
  L 223.333333 429.667128
  L 226.666667 409.621771
  L 230.000000 420.205004
  L 233.333333 410.734051
  L 236.666667 420.106670
  L 240.000000 429.225474
  L 243.333333 415.297100
  L 246.666667 415.371396
  L 250.000000 420.658844
  L 253.333333 433.731334
  L 256.666667 421.843358
  L 260.000000 414.500358
  L 263.333333 400.557237
  L 266.666667 429.566474
  L 270.000000 434.750651
  L 273.333333 445.423356
  L 276.666667 406.806566
  L 280.000000 439.654865
  L 283.333333 439.097704
  L 286.666667 405.647157
  L 290.000000 428.759667
  L 293.333333 438.062795
  L 296.666667 413.774341
  L 300.000000 413.809369
  L 303.333333 439.157100
  L 306.666667 428.067280
  L 310.000000 427.678878
  L 313.333333 416.460624
  L 316.666667 418.621805
  L 320.000000 415.656231
  L 323.333333 436.920032
  L 326.666667 420.925373
  L 330.000000 416.377535
  L 333.333333 398.840210
  L 336.666667 427.300682
  L 340.000000 394.612347
  L 343.333333 428.298776
  L 346.666667 416.434549
  L 350.000000 434.739376
  L 353.333333 434.108333
  L 356.666667 429.935232
  L 360.000000 414.126095
  L 363.333333 400.698357
  L 366.666667 413.632855
  L 370.000000 403.414591
  L 373.333333 423.677119
  L 376.666667 416.066617
  L 380.000000 423.893534
  L 383.333333 401.232340
  L 386.666667 409.139429
  L 390.000000 419.734816
  L 393.333333 426.545851
  L 396.666667 428.606275
  L 400.000000 415.291753
  L 403.333333 413.428998
  L 406.666667 440.002866
  L 410.000000 433.061405
  L 413.333333 423.422590
  L 416.666667 407.028414
  L 420.000000 393.543638
  L 423.333333 431.194950
  L 426.666667 416.213456
  L 430.000000 432.881259
  L 433.333333 430.511288
  L 436.666667 410.984841
  L 440.000000 418.446303
  L 443.333333 423.131488
  L 446.666667 423.082011
  L 450.000000 423.794012
  L 453.333333 419.943804
  L 456.666667 415.356533
  L 460.000000 439.686549
  L 463.333333 425.088350
  L 466.666667 412.742904
  L 470.000000 436.525867
  L 473.333333 408.208370
  L 476.666667 406.701320
  L 480.000000 406.849770
  L 483.333333 415.986630
  L 486.666667 422.657902
  L 490.000000 413.995842
  L 493.333333 427.235689
  L 496.666667 424.012456
  L 500.000000 424.643964
  L 503.333333 414.482470
  L 506.666667 417.440698
  L 510.000000 419.490503
  L 513.333333 435.394075
  L 516.666667 453.369035
  L 520.000000 449.026476
  L 523.333333 424.254032
  L 526.666667 412.679776
  L 530.000000 427.596580
  L 533.333333 451.042036
  L 536.666667 455.589239
  L 540.000000 435.428062
  L 543.333333 417.209860
  L 546.666667 424.977605
  L 550.000000 448.265898
  L 553.333333 418.955909
  L 556.666667 437.593476
  L 560.000000 464.897047
  L 563.333333 433.166432
  L 566.666667 454.652223
  L 570.000000 464.350146
  L 573.333333 459.263815
  L 576.666667 458.370437
  L 580.000000 484.524980
  L 580.000000 384.736790
  L 576.666667 366.913192
  L 573.333333 367.007742
  L 570.000000 372.247913
  L 566.666667 362.885032
  L 563.333333 347.196695
  L 560.000000 375.242229
  L 556.666667 353.218910
  L 553.333333 337.037313
  L 550.000000 364.828288
  L 546.666667 342.639116
  L 543.333333 336.923316
  L 540.000000 356.041981
  L 536.666667 375.690327
  L 533.333333 369.803356
  L 530.000000 349.142340
  L 526.666667 335.874775
  L 523.333333 346.714434
  L 520.000000 370.918869
  L 516.666667 373.506515
  L 513.333333 359.058695
  L 510.000000 346.167350
  L 506.666667 342.488625
  L 503.333333 343.312616
  L 500.000000 349.956283
  L 496.666667 350.684898
  L 493.333333 353.946893
  L 490.000000 342.678984
  L 486.666667 349.141328
  L 483.333333 343.537594
  L 480.000000 335.325123
  L 476.666667 334.072936
  L 473.333333 336.801110
  L 470.000000 363.115142
  L 466.666667 341.765551
  L 463.333333 352.932707
  L 460.000000 367.096822
  L 456.666667 344.205971
  L 453.333333 350.267006
  L 450.000000 351.456910
  L 446.666667 351.500228
  L 443.333333 351.313451
  L 440.000000 347.998807
  L 436.666667 341.116178
  L 433.333333 359.594346
  L 430.000000 360.867509
  L 426.666667 345.986472
  L 423.333333 359.735315
  L 420.000000 324.834912
  L 416.666667 337.913672
  L 413.333333 353.370335
  L 410.000000 360.516518
  L 406.666667 369.603057
  L 403.333333 343.130556
  L 400.000000 347.527591
  L 396.666667 359.139340
  L 393.333333 357.465740
  L 390.000000 350.512733
  L 386.666667 341.358740
  L 383.333333 332.317740
  L 380.000000 354.025450
  L 376.666667 345.192506
  L 373.333333 353.792861
  L 370.000000 334.443962
  L 366.666667 345.595746
  L 363.333333 332.977612
  L 360.000000 345.646760
  L 356.666667 361.763282
  L 353.333333 364.498684
  L 350.000000 364.880110
  L 346.666667 346.552951
  L 343.333333 357.748819
  L 340.000000 326.731880
  L 336.666667 359.408001
  L 333.333333 330.801514
  L 330.000000 348.180796
  L 326.666667 351.135356
  L 323.333333 366.711714
  L 320.000000 347.479870
  L 316.666667 350.845489
  L 313.333333 347.996300
  L 310.000000 359.152020
  L 306.666667 357.343668
  L 303.333333 368.237502
  L 300.000000 346.637904
  L 296.666667 344.080597
  L 293.333333 367.722057
  L 290.000000 359.961070
  L 286.666667 338.315007
  L 283.333333 368.890857
  L 280.000000 370.612377
  L 276.666667 338.858942
  L 273.333333 373.864738
  L 270.000000 362.480835
  L 266.666667 360.832269
  L 263.333333 333.180255
  L 260.000000 346.417833
  L 256.666667 351.898220
  L 253.333333 364.427021
  L 250.000000 352.447386
  L 246.666667 346.524163
  L 243.333333 345.987925
  L 240.000000 359.808070
  L 236.666667 351.335782
  L 233.333333 342.315714
  L 230.000000 352.604708
  L 226.666667 341.238076
  L 223.333333 359.875400
  L 220.000000 347.643186
  L 216.666667 354.569404
  L 213.333333 377.758614
  L 210.000000 343.542966
  L 206.666667 384.908220
  L 203.333333 348.153524
  L 200.000000 329.715787
  L 196.666667 354.246980
  L 193.333333 352.391552
  L 190.000000 354.079584
  L 186.666667 345.889079
  L 183.333333 350.745491
  L 180.000000 357.750459
  L 176.666667 334.323573
  L 173.333333 357.182876
  L 170.000000 336.947965
  L 166.666667 353.815509
  L 163.333333 356.790106
  L 160.000000 350.170739
  L 156.666667 327.817767
  L 153.333333 350.646695
  L 150.000000 371.203906
  L 146.666667 358.185210
  L 143.333333 355.385202
  L 140.000000 335.328568
  L 136.666667 352.690982
  L 133.333333 339.588910
  L 130.000000 357.836776
  L 126.666667 366.545985
  L 123.333333 369.744418
  L 120.000000 364.060410
  L 116.666667 351.134946
  L 113.333333 360.320388
  L 110.000000 357.678705
  L 106.666667 343.052870
  L 103.333333 362.983261
  L 100.000000 344.699205
  L 96.666667 344.372171
  L 93.333333 382.514146
  L 90.000000 401.506800
  L 86.666667 366.404304
  L 83.333333 206.318031
Z" fill="rgb(0,191,196)" fill-opacity="0.2"/>
<path d="M 83.333333 403.222545
  L 86.666667 435.588404
  L 90.000000 400.755753
  L 93.333333 394.436886
  L 96.666667 438.287365
  L 100.000000 436.021473
  L 103.333333 401.538894
  L 106.666667 392.637605
  L 110.000000 412.638268
  L 113.333333 393.644009
  L 116.666667 381.522690
  L 120.000000 417.381916
  L 123.333333 396.954807
  L 126.666667 391.804009
  L 130.000000 395.634218
  L 133.333333 393.135825
  L 136.666667 374.784580
  L 140.000000 368.227860
  L 143.333333 393.390313
  L 146.666667 385.498045
  L 150.000000 373.457858
  L 153.333333 399.372729
  L 156.666667 375.812152
  L 160.000000 387.041992
  L 163.333333 404.401256
  L 166.666667 379.351567
  L 170.000000 363.261803
  L 173.333333 376.876511
  L 176.666667 371.275931
  L 180.000000 392.942509
  L 183.333333 398.563568
  L 186.666667 362.477909
  L 190.000000 377.888938
  L 193.333333 360.306314
  L 196.666667 377.196893
  L 200.000000 371.873964
  L 203.333333 390.297526
  L 206.666667 377.118990
  L 210.000000 371.446774
  L 213.333333 388.931533
  L 216.666667 380.422705
  L 220.000000 393.607990
  L 223.333333 389.442209
  L 226.666667 383.987961
  L 230.000000 381.091270
  L 233.333333 392.225154
  L 236.666667 386.990570
  L 240.000000 387.286219
  L 243.333333 364.749743
  L 246.666667 392.221231
  L 250.000000 384.770318
  L 253.333333 387.348421
  L 256.666667 386.227106
  L 260.000000 388.507020
  L 263.333333 391.391013
  L 266.666667 381.672640
  L 270.000000 363.482935
  L 273.333333 383.729335
  L 276.666667 386.063243
  L 280.000000 373.203233
  L 283.333333 389.767304
  L 286.666667 396.243171
  L 290.000000 382.847065
  L 293.333333 381.837270
  L 296.666667 409.406965
  L 300.000000 391.311311
  L 303.333333 379.955889
  L 306.666667 371.052114
  L 310.000000 373.742018
  L 313.333333 363.353609
  L 316.666667 363.956460
  L 320.000000 373.996499
  L 323.333333 375.950156
  L 326.666667 372.863088
  L 330.000000 390.473153
  L 333.333333 390.315155
  L 336.666667 365.584769
  L 340.000000 401.513002
  L 343.333333 387.643514
  L 346.666667 389.764310
  L 350.000000 375.857988
  L 353.333333 391.589680
  L 356.666667 377.570298
  L 360.000000 395.572471
  L 363.333333 388.782587
  L 366.666667 366.672766
  L 370.000000 394.650934
  L 373.333333 388.909198
  L 376.666667 366.178862
  L 380.000000 379.849268
  L 383.333333 389.178744
  L 386.666667 380.096805
  L 390.000000 378.668392
  L 393.333333 384.099193
  L 396.666667 378.556430
  L 400.000000 407.502588
  L 403.333333 386.948386
  L 406.666667 381.783265
  L 410.000000 374.637922
  L 413.333333 373.595294
  L 416.666667 397.212689
  L 420.000000 387.230307
  L 423.333333 377.067901
  L 426.666667 371.673546
  L 430.000000 400.821303
  L 433.333333 372.015025
  L 436.666667 369.907158
  L 440.000000 394.465409
  L 443.333333 378.159795
  L 446.666667 372.976666
  L 450.000000 365.411603
  L 453.333333 393.957661
  L 456.666667 388.013107
  L 460.000000 404.278023
  L 463.333333 391.794496
  L 466.666667 380.057703
  L 470.000000 394.645309
  L 473.333333 378.944900
  L 476.666667 403.914980
  L 480.000000 384.761905
  L 483.333333 379.016657
  L 486.666667 358.771024
  L 490.000000 370.507899
  L 493.333333 394.102564
  L 496.666667 382.179436
  L 500.000000 400.114327
  L 503.333333 376.934866
  L 506.666667 382.272253
  L 510.000000 375.448120
  L 513.333333 389.356327
  L 516.666667 378.141558
  L 520.000000 384.659498
  L 523.333333 400.881226
  L 526.666667 375.653571
  L 530.000000 384.271034
  L 533.333333 382.390999
  L 536.666667 402.693180
  L 540.000000 408.241498
  L 543.333333 377.157623
  L 546.666667 413.150284
  L 550.000000 384.454234
  L 553.333333 388.470030
  L 556.666667 388.460954
  L 560.000000 391.965812
  L 563.333333 368.439955
  L 566.666667 374.334069
  L 570.000000 347.777778
  L 573.333333 408.908025
  L 576.666667 454.722549
  L 580.000000 281.918786
" stroke="rgb(248,118,109)" stroke-width="2" fill-opacity="0"/>
<path d="M 83.333333 266.643336
  L 86.666667 400.311331
  L 90.000000 442.144858
  L 93.333333 419.116276
  L 96.666667 376.843325
  L 100.000000 377.690163
  L 103.333333 397.096758
  L 106.666667 377.263882
  L 110.000000 392.186890
  L 113.333333 395.035800
  L 116.666667 385.215846
  L 120.000000 399.764209
  L 123.333333 406.062259
  L 126.666667 401.764864
  L 130.000000 392.516637
  L 133.333333 373.521187
  L 136.666667 387.871526
  L 140.000000 368.825758
  L 143.333333 389.325946
  L 146.666667 392.714233
  L 150.000000 405.714578
  L 153.333333 383.842717
  L 156.666667 360.609618
  L 160.000000 383.579520
  L 163.333333 390.843498
  L 166.666667 387.566962
  L 170.000000 369.595462
  L 173.333333 391.276026
  L 176.666667 367.454198
  L 180.000000 392.204352
  L 183.333333 384.125263
  L 186.666667 378.915747
  L 190.000000 387.224185
  L 193.333333 385.592642
  L 196.666667 388.101745
  L 200.000000 362.339822
  L 203.333333 380.676162
  L 206.666667 419.533953
  L 210.000000 376.768966
  L 213.333333 412.466473
  L 216.666667 388.220908
  L 220.000000 380.647777
  L 223.333333 393.595832
  L 226.666667 374.161789
  L 230.000000 385.245056
  L 233.333333 375.263789
  L 236.666667 384.515746
  L 240.000000 393.352174
  L 243.333333 379.379892
  L 246.666667 379.704305
  L 250.000000 385.373207
  L 253.333333 397.950225
  L 256.666667 385.632219
  L 260.000000 379.239637
  L 263.333333 365.572878
  L 266.666667 394.062424
  L 270.000000 397.384115
  L 273.333333 408.515785
  L 276.666667 371.561119
  L 280.000000 404.054041
  L 283.333333 402.869955
  L 286.666667 370.726082
  L 290.000000 393.215451
  L 293.333333 401.756127
  L 296.666667 377.637470
  L 300.000000 379.035063
  L 303.333333 402.547823
  L 306.666667 391.483031
  L 310.000000 392.273057
  L 313.333333 381.008304
  L 316.666667 383.555941
  L 320.000000 380.353357
  L 323.333333 400.676372
  L 326.666667 384.791030
  L 330.000000 381.068942
  L 333.333333 363.482935
  L 336.666667 392.232678
  L 340.000000 359.306830
  L 343.333333 391.809729
  L 346.666667 380.216651
  L 350.000000 398.667661
  L 353.333333 398.166099
  L 356.666667 394.735336
  L 360.000000 378.648380
  L 363.333333 365.528553
  L 366.666667 378.390263
  L 370.000000 367.587774
  L 373.333333 387.512453
  L 376.666667 379.308878
  L 380.000000 387.739183
  L 383.333333 365.418285
  L 386.666667 374.001967
  L 390.000000 383.897930
  L 393.333333 390.834813
  L 396.666667 392.701964
  L 400.000000 380.208546
  L 403.333333 376.962052
  L 406.666667 403.678023
  L 410.000000 395.533981
  L 413.333333 387.165491
  L 416.666667 371.152263
  L 420.000000 357.777778
  L 423.333333 394.237750
  L 426.666667 379.807081
  L 430.000000 395.638451
  L 433.333333 393.841063
  L 436.666667 374.731351
  L 440.000000 381.938045
  L 443.333333 385.919104
  L 446.666667 385.996897
  L 450.000000 386.306306
  L 453.333333 383.863185
  L 456.666667 378.443371
  L 460.000000 402.184883
  L 463.333333 387.708977
  L 466.666667 375.902476
  L 470.000000 398.558796
  L 473.333333 371.096831
  L 476.666667 368.911728
  L 480.000000 369.662797
  L 483.333333 378.374527
  L 486.666667 384.522556
  L 490.000000 376.981500
  L 493.333333 389.261117
  L 496.666667 385.990680
  L 500.000000 385.890579
  L 503.333333 377.551789
  L 506.666667 378.480786
  L 510.000000 381.433509
  L 513.333333 395.839752
  L 516.666667 412.063492
  L 520.000000 408.629894
  L 523.333333 383.947534
  L 526.666667 372.664386
  L 530.000000 386.823288
  L 533.333333 408.973444
  L 536.666667 414.283001
  L 540.000000 394.220926
  L 543.333333 375.332507
  L 546.666667 382.056555
  L 550.000000 404.980698
  L 553.333333 376.200901
  L 556.666667 393.691000
  L 560.000000 418.405453
  L 563.333333 388.342945
  L 566.666667 406.897019
  L 570.000000 416.522323
  L 573.333333 411.294597
  L 576.666667 410.827068
  L 580.000000 432.748943
" stroke="rgb(0,191,196)" stroke-width="2" fill-opacity="0"/>
<text x="650" y="650" text-anchor="end">--OB 0,148,4,0</text>
<line x1="573.333333" y1="580" x2="573.333333" y2="80" stroke-dasharray="5 1" stroke="rgb(248,118,109)" stroke-width="1" />
<line x1="93.333333" y1="580" x2="93.333333" y2="80" stroke-dasharray="5 1" stroke="rgb(0,191,196)" stroke-width="1" />
<rect x="590" y="310" width="20" height="20" fill="rgb(248,118,109)" />
<text x="615" y="320" text-anchor="start" dominant-baseline="middle">#1</text>
<rect x="590" y="330" width="20" height="20" fill="rgb(0,191,196)" />
<text x="615" y="340" text-anchor="start" dominant-baseline="middle">#2</text>
</svg>
